<?xml version="1.0" encoding="utf-8"?>
<!-- Generator: Adobe Illustrator 22.0.1, SVG Export Plug-In . SVG Version: 6.00 Build 0)  -->
<svg version="1.1" id="Layer_1" xmlns="http://www.w3.org/2000/svg" xmlns:xlink="http://www.w3.org/1999/xlink" x="0px" y="0px"
	 viewBox="0 0 490.4 55.4" style="enable-background:new 0 0 490.4 55.4;" xml:space="preserve">
<style type="text/css">
	.st0{fill:#4963AE;}
	.st1{fill:#F7941D;}
	.st2{opacity:0.31;}
	.st3{fill:#FFFFFF;}
</style>
<circle class="st0" cx="27.7" cy="27.7" r="27.7"/>
<g>
	<path d="M24,6.5h7.1v39.2H24v-3c-1.4,1.3-2.8,2.3-4.2,2.8c-1.4,0.6-2.9,0.9-4.5,0.9c-3.7,0-6.8-1.4-9.5-4.3c-2.7-2.8-4-6.4-4-10.6
		c0-4.4,1.3-8,3.9-10.7c2.6-2.8,5.7-4.2,9.4-4.2c1.7,0,3.3,0.3,4.8,1c1.5,0.6,2.9,1.6,4.1,2.9V6.5z M16.5,23.3c-2.2,0-4,0.8-5.5,2.3
		c-1.5,1.6-2.2,3.5-2.2,6c0,2.4,0.7,4.5,2.2,6c1.5,1.6,3.3,2.4,5.5,2.4c2.2,0,4.1-0.8,5.5-2.3c1.5-1.6,2.2-3.6,2.2-6.1
		c0-2.5-0.7-4.5-2.2-6C20.6,24.1,18.8,23.3,16.5,23.3z"/>
</g>
<g>
	<path class="st1" d="M41.6,17.5h7.1v28.3h-7.1v-3c-1.4,1.3-2.8,2.3-4.2,2.8c-1.4,0.6-2.9,0.9-4.5,0.9c-3.7,0-6.8-1.4-9.5-4.3
		c-2.7-2.8-4-6.4-4-10.6c0-4.4,1.3-8,3.9-10.7c2.6-2.8,5.7-4.2,9.4-4.2c1.7,0,3.3,0.3,4.8,1c1.5,0.6,2.9,1.6,4.1,2.9V17.5z
		 M34.1,23.3c-2.2,0-4,0.8-5.5,2.3c-1.5,1.6-2.2,3.5-2.2,6c0,2.4,0.7,4.5,2.2,6c1.5,1.6,3.3,2.4,5.5,2.4c2.2,0,4.1-0.8,5.5-2.3
		c1.5-1.6,2.2-3.6,2.2-6.1c0-2.5-0.7-4.5-2.2-6C38.3,24.1,36.4,23.3,34.1,23.3z"/>
</g>
<g class="st2">
	<path d="M23.9,6.4H31v39.2h-7.1v-3c-1.4,1.3-2.8,2.3-4.2,2.8c-1.4,0.6-2.9,0.9-4.5,0.9c-3.7,0-6.8-1.4-9.5-4.3
		c-2.7-2.8-4-6.4-4-10.6c0-4.4,1.3-8,3.9-10.7c2.6-2.8,5.7-4.2,9.4-4.2c1.7,0,3.3,0.3,4.8,1c1.5,0.6,2.9,1.6,4.1,2.9V6.4z
		 M16.4,23.2c-2.2,0-4,0.8-5.5,2.3c-1.5,1.6-2.2,3.5-2.2,6c0,2.4,0.7,4.5,2.2,6c1.5,1.6,3.3,2.4,5.5,2.4c2.2,0,4.1-0.8,5.5-2.3
		c1.5-1.6,2.2-3.6,2.2-6.1c0-2.5-0.7-4.5-2.2-6C20.5,24,18.7,23.2,16.4,23.2z"/>
</g>
<g>
	<path class="st1" d="M232.4,17.5h7.1v28.3h-7.1v-3c-1.4,1.3-2.8,2.3-4.2,2.8c-1.4,0.6-2.9,0.9-4.5,0.9c-3.7,0-6.8-1.4-9.5-4.3
		c-2.7-2.8-4-6.4-4-10.6c0-4.4,1.3-8,3.9-10.7c2.6-2.8,5.7-4.2,9.4-4.2c1.7,0,3.3,0.3,4.8,1c1.5,0.6,2.9,1.6,4.1,2.9V17.5z
		 M225,23.3c-2.2,0-4,0.8-5.5,2.3c-1.5,1.6-2.2,3.5-2.2,6c0,2.4,0.7,4.5,2.2,6c1.5,1.6,3.3,2.4,5.5,2.4c2.2,0,4.1-0.8,5.5-2.3
		c1.5-1.6,2.2-3.6,2.2-6.1c0-2.5-0.7-4.5-2.2-6C229.1,24.1,227.2,23.3,225,23.3z"/>
	<path class="st1" d="M264,6.5h7.1v39.2H264v-3c-1.4,1.3-2.8,2.3-4.2,2.8c-1.4,0.6-2.9,0.9-4.5,0.9c-3.7,0-6.8-1.4-9.5-4.3
		c-2.7-2.8-4-6.4-4-10.6c0-4.4,1.3-8,3.9-10.7c2.6-2.8,5.7-4.2,9.4-4.2c1.7,0,3.3,0.3,4.8,1c1.5,0.6,2.9,1.6,4.1,2.9V6.5z
		 M256.5,23.3c-2.2,0-4,0.8-5.5,2.3c-1.5,1.6-2.2,3.5-2.2,6c0,2.4,0.7,4.5,2.2,6c1.5,1.6,3.3,2.4,5.5,2.4c2.2,0,4.1-0.8,5.5-2.3
		c1.5-1.6,2.2-3.6,2.2-6.1c0-2.5-0.7-4.5-2.2-6C260.6,24.1,258.8,23.3,256.5,23.3z"/>
	<path class="st1" d="M295.5,6.5h7.1v39.2h-7.1v-3c-1.4,1.3-2.8,2.3-4.2,2.8c-1.4,0.6-2.9,0.9-4.5,0.9c-3.7,0-6.8-1.4-9.5-4.3
		c-2.7-2.8-4-6.4-4-10.6c0-4.4,1.3-8,3.9-10.7c2.6-2.8,5.7-4.2,9.4-4.2c1.7,0,3.3,0.3,4.8,1c1.5,0.6,2.9,1.6,4.1,2.9V6.5z
		 M288.1,23.3c-2.2,0-4,0.8-5.5,2.3c-1.5,1.6-2.2,3.5-2.2,6c0,2.4,0.7,4.5,2.2,6c1.5,1.6,3.3,2.4,5.5,2.4c2.2,0,4.1-0.8,5.5-2.3
		c1.5-1.6,2.2-3.6,2.2-6.1c0-2.5-0.7-4.5-2.2-6C292.2,24.1,290.3,23.3,288.1,23.3z"/>
	<path class="st1" d="M334.6,33.7h-22.8c0.3,2,1.2,3.6,2.6,4.8c1.4,1.2,3.3,1.8,5.5,1.8c2.7,0,4.9-0.9,6.8-2.8l6,2.8
		c-1.5,2.1-3.3,3.7-5.4,4.7c-2.1,1-4.6,1.5-7.4,1.5c-4.4,0-8.1-1.4-10.9-4.2c-2.8-2.8-4.2-6.3-4.2-10.5c0-4.3,1.4-7.9,4.2-10.8
		c2.8-2.9,6.3-4.3,10.5-4.3c4.5,0,8.1,1.4,10.9,4.3c2.8,2.9,4.2,6.6,4.2,11.3L334.6,33.7z M327.5,28.1c-0.5-1.6-1.4-2.9-2.8-3.9
		c-1.4-1-3-1.5-4.8-1.5c-2,0-3.7,0.6-5.2,1.7c-0.9,0.7-1.8,1.9-2.6,3.7H327.5z"/>
	<path class="st1" d="M336.7,17.5h7.1v2.9c1.6-1.4,3.1-2.3,4.4-2.8c1.3-0.5,2.6-0.8,4-0.8c2.8,0,5.2,1,7.1,2.9
		c1.6,1.7,2.5,4.1,2.5,7.4v18.7h-7V33.4c0-3.4-0.2-5.6-0.5-6.7c-0.3-1.1-0.8-2-1.6-2.5c-0.8-0.6-1.7-0.9-2.8-0.9
		c-1.4,0-2.7,0.5-3.7,1.4c-1,1-1.7,2.3-2.1,4c-0.2,0.9-0.3,2.8-0.3,5.7v11.4h-7.1V17.5z"/>
	<path class="st1" d="M385.9,6.5h7.1v39.2h-7.1v-3c-1.4,1.3-2.8,2.3-4.2,2.8c-1.4,0.6-2.9,0.9-4.5,0.9c-3.7,0-6.8-1.4-9.5-4.3
		c-2.7-2.8-4-6.4-4-10.6c0-4.4,1.3-8,3.9-10.7c2.6-2.8,5.7-4.2,9.4-4.2c1.7,0,3.3,0.3,4.8,1c1.5,0.6,2.9,1.6,4.1,2.9V6.5z
		 M378.5,23.3c-2.2,0-4,0.8-5.5,2.3c-1.5,1.6-2.2,3.5-2.2,6c0,2.4,0.7,4.5,2.2,6c1.5,1.6,3.3,2.4,5.5,2.4c2.2,0,4.1-0.8,5.5-2.3
		c1.5-1.6,2.2-3.6,2.2-6.1c0-2.5-0.7-4.5-2.2-6C382.6,24.1,380.7,23.3,378.5,23.3z"/>
	<path class="st1" d="M396.6,17.5h7.2v13.6c0,2.7,0.2,4.5,0.5,5.5c0.4,1,1,1.8,1.8,2.4c0.8,0.6,1.8,0.9,3,0.9c1.2,0,2.2-0.3,3-0.8
		c0.8-0.6,1.4-1.4,1.8-2.5c0.3-0.8,0.4-2.6,0.4-5.2V17.5h7.1v12c0,4.9-0.4,8.3-1.2,10.1c-1,2.2-2.4,3.9-4.2,5.1
		c-1.9,1.2-4.2,1.8-7.1,1.8c-3.1,0-5.6-0.7-7.5-2.1c-1.9-1.4-3.3-3.3-4-5.8c-0.6-1.7-0.8-4.8-0.8-9.4V17.5z"/>
	<path class="st1" d="M424.9,17.5h7.1v3.3c1.2-1.3,2.6-2.3,4-3c1.5-0.7,3.1-1,4.9-1c1.8,0,3.4,0.4,4.8,1.3c1.4,0.9,2.6,2.1,3.4,3.8
		c1.1-1.7,2.5-2.9,4.2-3.8c1.6-0.9,3.4-1.3,5.4-1.3c2,0,3.8,0.5,5.3,1.4c1.5,0.9,2.6,2.2,3.3,3.7c0.7,1.5,1,4,1,7.4v16.6h-7.2V31.4
		c0-3.2-0.4-5.4-1.2-6.5c-0.8-1.1-2-1.7-3.6-1.7c-1.2,0-2.3,0.3-3.3,1c-1,0.7-1.7,1.7-2.1,2.9c-0.5,1.2-0.7,3.2-0.7,5.9v12.8h-7.2
		V32.1c0-2.5-0.2-4.4-0.6-5.5c-0.4-1.1-0.9-2-1.7-2.5c-0.7-0.6-1.7-0.8-2.7-0.8c-1.2,0-2.3,0.4-3.2,1.1c-1,0.7-1.7,1.7-2.2,3
		c-0.5,1.3-0.7,3.3-0.7,6v12.6h-7.1V17.5z"/>
	<path class="st1" d="M489.9,21.4l-4.4,4.4c-1.8-1.8-3.4-2.7-4.9-2.7c-0.8,0-1.4,0.2-1.9,0.5c-0.5,0.3-0.7,0.8-0.7,1.3
		c0,0.4,0.1,0.7,0.4,1.1c0.3,0.3,1,0.8,2.1,1.3l2.6,1.3c2.7,1.4,4.6,2.7,5.6,4.1c1,1.4,1.5,3.1,1.5,4.9c0,2.5-0.9,4.6-2.8,6.3
		c-1.8,1.7-4.3,2.5-7.4,2.5c-4.1,0-7.4-1.6-9.9-4.8l4.4-4.8c0.8,1,1.8,1.8,2.9,2.4c1.1,0.6,2.1,0.9,3,0.9c0.9,0,1.7-0.2,2.3-0.7
		c0.6-0.5,0.9-1,0.9-1.6c0-1.1-1-2.2-3.1-3.2l-2.4-1.2c-4.6-2.3-6.9-5.2-6.9-8.7c0-2.2,0.9-4.2,2.6-5.7c1.7-1.6,3.9-2.4,6.6-2.4
		c1.8,0,3.6,0.4,5.2,1.2C487.4,18.8,488.7,19.9,489.9,21.4z"/>
</g>
<g>
	<path class="st3" d="M83.7,6.5h7.1v39.2h-7.1v-3c-1.4,1.3-2.8,2.3-4.2,2.8c-1.4,0.6-2.9,0.9-4.5,0.9c-3.7,0-6.8-1.4-9.5-4.3
		c-2.7-2.8-4-6.4-4-10.6c0-4.4,1.3-8,3.9-10.7c2.6-2.8,5.7-4.2,9.4-4.2c1.7,0,3.3,0.3,4.8,1c1.5,0.6,2.9,1.6,4.1,2.9V6.5z
		 M76.2,23.3c-2.2,0-4,0.8-5.5,2.3c-1.5,1.6-2.2,3.5-2.2,6c0,2.4,0.7,4.5,2.2,6c1.5,1.6,3.3,2.4,5.5,2.4c2.2,0,4.1-0.8,5.5-2.3
		c1.5-1.6,2.2-3.6,2.2-6.1c0-2.5-0.7-4.5-2.2-6C80.3,24.1,78.5,23.3,76.2,23.3z"/>
	<path class="st3" d="M122.3,33.7H99.5c0.3,2,1.2,3.6,2.6,4.8c1.4,1.2,3.3,1.8,5.5,1.8c2.7,0,4.9-0.9,6.8-2.8l6,2.8
		c-1.5,2.1-3.3,3.7-5.4,4.7c-2.1,1-4.6,1.5-7.4,1.5c-4.4,0-8.1-1.4-10.9-4.2c-2.8-2.8-4.2-6.3-4.2-10.5c0-4.3,1.4-7.9,4.2-10.8
		c2.8-2.9,6.3-4.3,10.5-4.3c4.5,0,8.1,1.4,10.9,4.3c2.8,2.9,4.2,6.6,4.2,11.3L122.3,33.7z M115.2,28.1c-0.5-1.6-1.4-2.9-2.8-3.9
		c-1.4-1-3-1.5-4.8-1.5c-2,0-3.7,0.6-5.2,1.7c-0.9,0.7-1.8,1.9-2.6,3.7H115.2z"/>
	<path class="st3" d="M146.3,17.5h7.1v28.3h-7.1v-3c-1.4,1.3-2.8,2.3-4.2,2.8c-1.4,0.6-2.9,0.9-4.5,0.9c-3.7,0-6.8-1.4-9.5-4.3
		c-2.7-2.8-4-6.4-4-10.6c0-4.4,1.3-8,3.9-10.7c2.6-2.8,5.7-4.2,9.4-4.2c1.7,0,3.3,0.3,4.8,1c1.5,0.6,2.9,1.6,4.1,2.9V17.5z
		 M138.9,23.3c-2.2,0-4,0.8-5.5,2.3c-1.5,1.6-2.2,3.5-2.2,6c0,2.4,0.7,4.5,2.2,6c1.5,1.6,3.3,2.4,5.5,2.4c2.2,0,4.1-0.8,5.5-2.3
		c1.5-1.6,2.2-3.6,2.2-6.1c0-2.5-0.7-4.5-2.2-6C143,24.1,141.1,23.3,138.9,23.3z"/>
	<path class="st3" d="M156,6.5h7.1v39.2H156V6.5z"/>
	<path class="st3" d="M194.6,33.7h-22.8c0.3,2,1.2,3.6,2.6,4.8c1.4,1.2,3.3,1.8,5.5,1.8c2.7,0,4.9-0.9,6.8-2.8l6,2.8
		c-1.5,2.1-3.3,3.7-5.4,4.7c-2.1,1-4.6,1.5-7.4,1.5c-4.4,0-8.1-1.4-10.9-4.2c-2.8-2.8-4.2-6.3-4.2-10.5c0-4.3,1.4-7.9,4.2-10.8
		c2.8-2.9,6.3-4.3,10.5-4.3c4.5,0,8.1,1.4,10.9,4.3c2.8,2.9,4.2,6.6,4.2,11.3L194.6,33.7z M187.5,28.1c-0.5-1.6-1.4-2.9-2.8-3.9
		c-1.4-1-3-1.5-4.8-1.5c-2,0-3.7,0.6-5.2,1.7c-0.9,0.7-1.8,1.9-2.6,3.7H187.5z"/>
	<path class="st3" d="M196.5,17.5h6.1V21c0.7-1.4,1.5-2.5,2.6-3.2c1.1-0.7,2.3-1.1,3.6-1.1c0.9,0,1.9,0.2,2.9,0.7l-2.2,6.1
		c-0.8-0.4-1.5-0.6-2.1-0.6c-1.1,0-2,0.7-2.8,2c-0.8,1.4-1.1,4-1.1,8l0,1.4v11.4h-7.1V17.5z"/>
</g>
</svg>
